HIERARCHY
ROOT Hips
{
	OFFSET 0.00000 0.00000 0.00000
	CHANNELS 6 Xposition Yposition Zposition Zrotation Yrotation Xrotation 
	JOINT LHipJoint
	{
		OFFSET 0 0 0
		CHANNELS 3 Zrotation Yrotation Xrotation
		JOINT LeftUpLeg
		{
			OFFSET 1.62964 -1.40469 0.78906
			CHANNELS 3 Zrotation Yrotation Xrotation
			JOINT LeftLeg
			{
				OFFSET 2.29640 -6.30932 0.00000
				CHANNELS 3 Zrotation Yrotation Xrotation
				JOINT LeftFoot
				{
					OFFSET 2.29451 -6.30412 0.00000
					CHANNELS 3 Zrotation Yrotation Xrotation
					JOINT LeftToeBase
					{
						OFFSET 0.03611 -0.09921 1.56387
						CHANNELS 3 Zrotation Yrotation Xrotation
						End Site
						{
							OFFSET 0.00000 -0.00000 0.80291
						}
					}
				}
			}
		}
	}
	JOINT RHipJoint
	{
		OFFSET 0 0 0
		CHANNELS 3 Zrotation Yrotation Xrotation
		JOINT RightUpLeg
		{
			OFFSET -1.73712 -1.40469 0.78906
			CHANNELS 3 Zrotation Yrotation Xrotation
			JOINT RightLeg
			{
				OFFSET -2.28137 -6.26801 0.00000
				CHANNELS 3 Zrotation Yrotation Xrotation
				JOINT RightFoot
				{
					OFFSET -2.28681 -6.28298 0.00000
					CHANNELS 3 Zrotation Yrotation Xrotation
					JOINT RightToeBase
					{
						OFFSET -0.15927 -0.43759 1.61103
						CHANNELS 3 Zrotation Yrotation Xrotation
						End Site
						{
							OFFSET -0.00000 -0.00000 0.84630
						}
					}
				}
			}
		}
	}
	JOINT LowerBack
	{
		OFFSET 0 0 0
		CHANNELS 3 Zrotation Yrotation Xrotation
		JOINT Spine
		{
			OFFSET -0.04227 2.04338 -0.00225
			CHANNELS 3 Zrotation Yrotation Xrotation
			JOINT Spine1
			{
				OFFSET -0.02148 2.04482 -0.04273
				CHANNELS 3 Zrotation Yrotation Xrotation
				JOINT Neck
				{
					OFFSET 0 0 0
					CHANNELS 3 Zrotation Yrotation Xrotation
					JOINT Neck1
					{
						OFFSET 0.09180 1.44629 0.19359
						CHANNELS 3 Zrotation Yrotation Xrotation
						JOINT Head
						{
							OFFSET 0.00887 1.40645 0.14750
							CHANNELS 3 Zrotation Yrotation Xrotation
							End Site
							{
								OFFSET -0.00669 1.50671 0.03707
							}
						}
					}
				}
				JOINT LeftShoulder
				{
					OFFSET 0 0 0
					CHANNELS 3 Zrotation Yrotation Xrotation
					JOINT LeftArm
					{
						OFFSET 2.17674 1.86763 -0.06520
						CHANNELS 3 Zrotation Yrotation Xrotation
						JOINT LeftForeArm
						{
							OFFSET 4.65776 -0.00000 0.00000
							CHANNELS 3 Zrotation Yrotation Xrotation
							JOINT LeftHand
							{
								OFFSET 3.55539 -0.00000 0.00000
								CHANNELS 3 Zrotation Yrotation Xrotation
								JOINT LeftFingerBase
								{
									OFFSET 0 0 0
									CHANNELS 3 Zrotation Yrotation Xrotation
									JOINT LeftHandIndex1
									{
										OFFSET 0.70726 -0.00000 0.00000
										CHANNELS 3 Zrotation Yrotation Xrotation
										End Site
										{
											OFFSET 0.57022 -0.00000 0.00000
										}
									}
								}
								JOINT LThumb
								{
									OFFSET 0 0 0
									CHANNELS 3 Zrotation Yrotation Xrotation
									End Site
									{
										OFFSET 0.57892 -0.00000 0.57892
									}
								}
							}
						}
					}
				}
				JOINT RightShoulder
				{
					OFFSET 0 0 0
					CHANNELS 3 Zrotation Yrotation Xrotation
					JOINT RightArm
					{
						OFFSET -2.80694 1.55459 -0.32496
						CHANNELS 3 Zrotation Yrotation Xrotation
						JOINT RightForeArm
						{
							OFFSET -4.71925 -0.00000 -0.00000
							CHANNELS 3 Zrotation Yrotation Xrotation
							JOINT RightHand
							{
								OFFSET -3.56990 -0.00000 0.00000
								CHANNELS 3 Zrotation Yrotation Xrotation
								JOINT RightFingerBase
								{
									OFFSET 0 0 0
									CHANNELS 3 Zrotation Yrotation Xrotation
									JOINT RightHandIndex1
									{
										OFFSET -0.50776 -0.00000 0.00000
										CHANNELS 3 Zrotation Yrotation Xrotation
										End Site
										{
											OFFSET -0.40937 -0.00000 0.00000
										}
									}
								}
								JOINT RThumb
								{
									OFFSET 0 0 0
									CHANNELS 3 Zrotation Yrotation Xrotation
									End Site
									{
										OFFSET -0.41562 -0.00000 0.41562
									}
								}
							}
						}
					}
				}
			}
		}
	}
}
MOTION
Frames: 12
Frame Time: 0.166667
0.00 0.00 0.00 0 0 0 0 0 0 -21 0 0 0 0 0 0 0 0 0 0 0 0 0 0 21 0 0 0 0 0 0 0 0 0 0 0 0 0 0 0 0 0 0 0 0 0 0 -16 0 0 21 0 0 11 0 0 0 -8 0 0 0 0 0 0 0 0 0 0 0 0 0 0 0 0 0 0 0 0 8 0 0 0 0 0 0 0 0 0 0 0 0 0 0 0 0 0
0.00 0.00 0.00 179.6120 -1.0091 -146.7210 0.0000 0.0000 0.0000 -9.8384 -24.3773 -36.2723 1.5358 7.8237 22.1798 0.8399 0.3132 -17.4377 6.9175 -15.2620 -48.5615 0.0000 0.0000 0.0000 14.0539 21.3528 -34.0265 -1.1774 -6.8871 19.3812 -2.0087 -2.2436 -27.6674 -2.2558 9.3798 -26.9907 -3.4602 -1.2663 -18.3867 -0.2575 -1.2569 -1.5655 1.3490 -0.8602 8.6843 -3.8551 -2.5412 -1.2780 9.0149 -0.5602 -18.8466 3.4471 0.1513 -5.3581 0.0000 0.0000 0.0000 -71.2589 11.3199 36.3592 16.4741 -26.1592 -3.8526 -0.0000 0.0000 -1.0269 23.5818 -16.4293 -7.0381 -7.1250 0.0000 -0.0000 -2.7937 12.1608 2.1451 0.0000 0.0000 0.0000 85.7381 -15.8023 9.2586 -13.2059 21.5881 -2.5285 0.0000 0.0000 4.4811 -12.1162 -50.3325 9.3833 7.1250 -0.0000 -0.0000 -13.0031 11.0517 -169.4482
0.00 0.00 0.00 180.0030 0.1357 -139.3420 0.0000 0.0000 0.0000 -3.4027 -24.7534 -56.7186 4.6687 13.0007 39.3712 1.5239 -2.8521 -22.5909 6.3134 -14.7253 -46.2268 0.0000 0.0000 0.0000 9.0978 24.6954 -53.7159 -4.0375 -12.2102 36.4796 -3.0537 -0.1248 -33.1954 -2.8248 10.4060 -30.3016 -3.3164 -1.2188 -13.9417 0.0468 -0.8994 -1.6111 1.7639 -0.4297 6.1727 -2.7307 -3.8281 -2.1932 7.4868 -1.5546 -23.4479 2.8424 0.0103 -6.6374 -0.0000 0.0000 0.0000 -67.0804 19.7789 40.8488 20.5501 -31.2994 -5.8144 -0.0000 0.0000 -5.0555 22.8263 -13.2968 -5.5293 -7.1250 0.0000 -0.0000 -3.1071 15.6126 2.1595 -0.0000 0.0000 0.0000 83.2864 -23.6245 12.0126 -14.8691 23.9634 -3.1726 0.0000 0.0000 1.7471 -12.0996 -50.0389 9.3311 7.1250 -0.0000 -0.0000 -12.9905 11.3308 -169.5355
0.00 0.00 0.00 179.3540 0.7662 -134.2950 0.0000 0.0000 0.0000 -0.0195 -24.0555 -73.4970 8.9243 16.7588 55.8280 2.0504 -5.8802 -25.8641 6.0629 -14.4890 -45.2335 0.0000 0.0000 0.0000 4.5092 24.6181 -70.6816 -8.1825 -16.2519 53.2174 -4.1909 2.0871 -38.3885 -3.5088 11.4764 -33.9040 -4.0415 -1.1257 -10.0431 -0.3109 -0.9115 -1.2170 1.8306 -0.4631 4.4260 -1.5063 -5.4865 -1.3845 7.2862 -3.0994 -27.6791 2.7082 -0.5540 -8.1477 0.0000 -0.0000 0.0000 -64.9741 24.2913 43.1550 23.0647 -34.1594 -7.1746 -0.0000 0.0000 -6.5407 22.9686 -14.4791 -6.0490 -7.1250 0.0000 -0.0000 -3.0757 14.3289 2.2221 0.0000 -0.0000 0.0000 83.5549 -26.4713 11.1464 -15.2847 24.5412 -3.3433 0.0000 0.0000 2.8616 -12.1407 -50.1364 9.3763 7.1250 -0.0000 -0.0000 -12.9788 11.2292 -169.5176
0.00 0.00 0.00 179.6840 1.1527 -130.9950 0.0000 0.0000 0.0000 2.4952 -22.1066 -88.0917 14.4707 19.2506 73.6371 2.5871 -6.6037 -29.1291 5.5670 -13.9952 -43.2181 0.0000 0.0000 0.0000 -0.2504 26.6054 -84.4027 -13.2417 -18.8677 69.8746 -5.4345 3.5469 -43.6452 -2.9905 10.6796 -31.2069 -3.3141 -0.4585 -6.0149 -0.5413 -0.3228 -0.7938 1.2773 -0.1663 2.5708 -1.3553 -5.2916 -1.6419 7.5348 -1.7895 -30.9864 2.7040 0.4167 -9.3499 -0.0000 0.0000 0.0000 -65.3877 23.7089 43.5401 22.3430 -33.3625 -6.7735 -0.0000 0.0000 -6.3427 23.1932 -14.3114 -6.0458 -7.1250 0.0000 -0.0000 -2.9129 14.4826 2.0947 -0.0000 0.0000 0.0000 85.3604 -24.7014 6.6727 -13.6878 22.2867 -2.7086 0.0000 0.0000 5.5614 -12.7456 -49.6735 9.7841 7.1250 -0.0000 -0.0000 -12.6796 11.5191 -169.8498
0.00 0.00 0.00 179.8010 2.6375 -129.8680 0.0000 0.0000 0.0000 3.6109 -20.7086 -97.3974 20.5545 19.9926 91.6215 3.0200 -9.2428 -31.3950 5.2311 -13.6394 -41.8119 0.0000 0.0000 0.0000 -2.4044 27.3067 -92.8461 -18.7916 -19.9650 86.4648 -6.7035 4.4869 -48.6102 -2.9067 10.5424 -30.7517 -3.5842 -0.3293 -2.8367 -1.0414 -0.2790 -0.7988 0.9314 -0.1218 0.7838 0.0849 -6.2270 -0.5098 7.2977 -3.2726 -31.5778 2.5188 -0.4971 -9.7570 -0.0000 -0.0000 0.0000 -71.7641 12.9285 35.6585 18.0247 -28.1888 -4.5609 -0.0000 0.0000 -1.8393 26.8301 -15.0949 -7.5037 -7.1250 0.0000 -0.0000 -0.5124 13.1621 0.3823 -0.0000 -0.0000 0.0000 87.1906 -9.1529 -3.9865 -9.3119 15.6561 -1.2830 0.0000 0.0000 19.6191 -15.8818 -48.1805 11.9714 7.1250 -0.0000 -0.0000 -11.1373 12.1485 -171.2857
0.00 0.00 0.00 177.7760 4.0887 -146.8620 0.0000 0.0000 0.0000 -16.9158 -15.3781 -44.1877 9.3821 17.0474 57.4023 0.2931 -4.9832 -9.7200 5.5463 -13.9738 -43.1326 0.0000 0.0000 0.0000 13.1800 18.9231 -41.2991 -8.6333 -16.5659 54.8131 -2.0249 1.9705 -26.3863 -5.0393 13.4280 -40.9924 -3.8806 -0.9922 -9.1526 -1.7448 -0.6325 -2.9191 0.3126 -0.1906 2.1302 -1.9283 -2.8030 0.4638 7.7652 -1.5412 -17.5460 2.7738 -0.5767 -5.2388 -0.0000 0.0000 0.0000 -63.1743 -11.4775 54.7306 47.3217 -51.8565 -24.0512 -0.0000 -0.0000 0.8725 31.8607 -15.7489 -9.5749 -7.1250 0.0000 -0.0000 2.7658 11.6281 -2.1541 -0.0000 0.0000 0.0000 74.2485 7.2803 44.7879 -66.7920 57.8637 -40.0454 0.0000 -0.0000 -9.0091 -15.0599 -50.4919 11.7278 7.1250 -0.0000 -0.0000 -11.7393 10.1903 -170.3118
0.00 0.00 0.00 177.4440 3.3944 -146.0690 0.0000 0.0000 0.0000 -18.1873 -11.9696 -37.6357 5.6117 14.0412 43.4029 0.0692 -0.0546 4.9889 5.2955 -13.7090 -42.0841 0.0000 0.0000 0.0000 13.8410 14.5424 -34.4763 -4.9129 -13.2850 40.4448 -0.3233 1.5085 -10.3198 -4.3132 12.5660 -37.7647 -3.9724 -1.5695 -16.9955 -1.4335 -0.7164 -3.5335 0.5973 -0.1615 5.7823 2.1403 -2.3286 -3.1888 1.7369 -2.5343 -9.1225 0.2066 -1.1580 -2.3294 -0.0000 -0.0000 0.0000 -61.4202 -10.8894 55.6354 52.1695 -53.8339 -27.9163 -0.0000 -0.0000 0.6589 32.8758 -15.8707 -10.0235 -7.1250 0.0000 -0.0000 3.4175 11.3037 -2.6862 -0.0000 -0.0000 0.0000 71.5493 4.6835 45.0566 -75.6441 59.2068 -47.6005 0.0000 -0.0000 -11.4589 -14.6364 -48.3134 11.0359 7.1250 -0.0000 -0.0000 -11.7192 12.3352 -170.8571
0.00 0.00 0.00 177.1050 2.2508 -147.0620 0.0000 0.0000 0.0000 -18.4335 -11.2338 -27.3790 2.0682 9.0067 25.8162 1.4253 13.8358 22.0749 4.7434 -13.0889 -39.7022 0.0000 0.0000 0.0000 13.9872 12.9441 -24.1042 -1.6974 -8.2051 23.3389 -0.3287 -6.7734 10.5612 -3.7164 11.7732 -34.9341 -3.9634 -2.0817 -22.1193 -1.2538 -0.9096 -3.7366 0.6813 -0.1940 8.3191 2.3727 -2.4797 -2.7494 0.5126 -3.2006 -4.1921 -0.2327 -1.5767 -0.8559 0.0000 -0.0000 0.0000 -59.9357 -9.4211 56.5291 56.3340 -55.2512 -31.3093 -0.0000 0.0000 -1.1702 32.2683 -17.5913 -10.8036 -7.1250 0.0000 -0.0000 2.7866 9.4453 -2.2943 0.0000 -0.0000 0.0000 70.1702 0.8435 44.4644 -80.9062 59.6852 -52.1329 0.0000 -0.0000 -13.6983 -15.9910 -49.0539 12.2137 7.1250 -0.0000 -0.0000 -11.1792 11.3008 -171.0518
0.00 0.00 0.00 177.0940 0.0415 -150.9770 0.0000 0.0000 0.0000 -21.8193 -8.7208 -33.0473 3.8869 12.0083 35.7614 2.4453 17.2618 28.9087 5.4693 -13.8936 -42.8127 0.0000 0.0000 0.0000 14.5740 12.3151 -26.0187 -2.5518 -9.9315 28.7552 -1.1088 -15.6777 20.3768 -1.6812 8.1679 -23.2252 -3.2035 -1.0265 -20.5159 -1.2343 -1.0696 -2.6601 0.1552 -0.8284 8.6079 2.2256 -4.0566 2.6594 -1.2723 -5.3571 -1.3365 -0.6693 -2.6730 -0.9488 -0.0000 -0.0000 0.0000 -63.6874 -5.5101 52.7187 52.2784 -53.8741 -28.0043 -0.0000 0.0000 -4.9614 31.4099 -13.5906 -8.1656 -7.1250 0.0000 -0.0000 2.7251 14.1773 -1.9770 -0.0000 -0.0000 0.0000 70.1531 -8.0208 44.5432 -59.2592 56.1093 -33.7254 0.0000 -0.0000 -12.4481 -12.6897 -59.1006 10.9355 7.1250 -0.0000 -0.0000 -13.5830 2.8121 -166.7157
0.00 0.00 0.00 178.7470 2.5593 -153.5950 0.0000 0.0000 0.0000 -11.3921 -16.9911 -42.6614 1.2597 7.1148 20.0558 1.4586 19.7307 24.0102 5.7012 -14.1324 -43.7703 0.0000 0.0000 0.0000 11.0525 17.4922 -39.8525 -0.6650 -5.2151 14.5232 0.4068 -19.1221 9.5840 -1.7605 8.3484 -23.7773 -5.6007 -1.1554 -13.5554 -2.3084 -0.1905 2.8917 0.6204 -0.3076 10.8295 1.4453 -5.3217 12.0170 0.4082 -6.8440 -10.7969 0.4389 -3.4136 -5.2492 0.0000 0.0000 0.0000 -79.4672 7.7992 38.4560 22.5922 -33.6399 -6.9111 -0.0000 0.0000 -0.7041 27.2531 -13.2416 -6.7291 -7.1250 0.0000 -0.0000 -0.0664 15.1537 0.0467 0.0000 0.0000 0.0000 83.2080 -12.8754 36.6371 -22.7339 33.7965 -6.9897 0.0000 -0.0000 -1.1260 -5.5100 -55.1252 4.5250 7.1250 -0.0000 -0.0000 -15.9089 8.0160 -165.8955
0.00 0.00 0.00 180.2300 1.5124 -162.2420 0.0000 0.0000 0.0000 -8.8766 -19.2900 -56.8115 13.6755 19.0127 71.2111 0.8181 -2.6792 -16.3940 4.5063 -12.8052 -38.6437 0.0000 0.0000 0.0000 13.4425 20.3670 -56.2068 -12.7986 -18.7082 68.4987 -1.9490 6.2625 -25.1522 -1.5426 7.8401 -22.2295 -5.5195 -1.3968 -6.9560 -2.3308 -0.9232 4.0706 0.5120 -0.6036 8.2864 1.9805 -4.4767 6.1383 0.8553 -5.6645 -8.2214 0.2290 -2.8687 -3.7984 -0.0000 -0.0000 0.0000 -78.9288 3.4713 25.7259 13.4359 -21.9225 -2.6138 -0.0000 -0.0000 9.1354 30.2729 -12.7592 -7.3459 -7.1250 0.0000 -0.0000 2.0425 15.2939 -1.4324 -0.0000 -0.0000 0.0000 90.5897 -11.9568 21.5927 -17.0446 26.9165 -4.1075 0.0000 0.0000 6.5454 -10.9851 -55.9002 9.1313 7.1250 -0.0000 -0.0000 -13.8743 6.1331 -167.3002
